<svg xmlns="http://www.w3.org/2000/svg" xmlns:xlink="http://www.w3.org/1999/xlink" xml:space="preserve" style="shape-rendering:geometricPrecision;text-rendering:geometricPrecision;image-rendering:optimizeQuality;" viewBox="0 0 6.82666 8.533325000000001" x="0px" y="0px" fill-rule="evenodd" clip-rule="evenodd"><defs><style type="text/css">
   
    .fil1 {fill:none}
    .fil0 {fill:white;fill-rule:nonzero}
   
  </style></defs><g><path class="fil0" d="M0.685445 1.96938l5.45577 0 0.108902 0 -0.0668189 0.0860433 -2.72789 3.51261 -0.0420827 0.054185 -0.0420827 -0.054185 -0.147346 -0.189728 -2.58054 -3.32288 -0.0668189 -0.0860433 0.108902 0zm5.34687 0.106669l-5.23796 0 2.51372 3.23684 0.105264 0.135539 2.61898 -3.37238zm-5.39232 -0.871602l5.54667 0 0.0533346 0 0 0.0533346 0 0.373331 0 0.0533346 -0.0533346 0 -5.54667 0 -0.0533346 0 0 -0.0533346 0 -0.373331 0 -0.0533346 0.0533346 0zm5.49333 0.106669l-5.44 0 0 0.266661 5.44 0 0 -0.266661zm-0.863449 1.13826l-3.71309 0 1.85655 2.39062 1.85655 -2.39062zm-3.822 -0.106669l3.93091 0 0.108902 0 -0.0668189 0.0860433 -1.96545 2.53085 -0.0420827 0.054185 -0.0420827 -0.054185 -1.96545 -2.53085 -0.0668189 -0.0860433 0.108902 0z"/></g><rect class="fil1" width="6.82666" height="6.82666"/><text x="0" y="21.82666" fill="#000000" font-size="5px" font-weight="bold" font-family="'Helvetica Neue', Helvetica, Arial-Unicode, Arial, Sans-serif">Created by Graphic Nehar</text><text x="0" y="26.82666" fill="#000000" font-size="5px" font-weight="bold" font-family="'Helvetica Neue', Helvetica, Arial-Unicode, Arial, Sans-serif">from the Noun Project</text></svg>