<svg xmlns="http://www.w3.org/2000/svg" xmlns:xlink="http://www.w3.org/1999/xlink" version="1.1" x="0px" y="0px" viewBox="0 0 100 125" style="enable-background:new 0 0 100 100;" xml:space="preserve"><path d="M27.5,69.7c2,0,3.7,1.4,4.1,3.3h5.6c-0.4-5-4.6-8.9-9.6-8.9s-9.2,3.9-9.6,8.9h5.6C23.8,71.2,25.5,69.7,27.5,69.7z"/><path d="M52.5,68.2c2.8,0,5.2,2.1,5.6,4.8h7.6c-0.4-6.9-6.2-12.4-13.2-12.4s-12.8,5.5-13.2,12.4h7.6C47.3,70.3,49.6,68.2,52.5,68.2z  "/><path d="M96.6,55.1c-0.1-0.5-0.2-1-0.5-1.5c-2.1-5.4-7.4-9.2-13.5-9.2c-8,0-14.5,6.5-14.5,14.5c0,0.1,0,0.3,0,0.4v13.7h8.3V59.7  l0-0.8c0-3.4,2.8-6.1,6.2-6.1c2.7,0,5,1.7,5.9,4.2c0,0.1,0,0.1,0.1,0.2c0.6,1.6,2.1,2.8,4,2.8c2.3,0,4.2-1.9,4.2-4.2  C96.7,55.5,96.7,55.3,96.6,55.1z"/><path d="M9.3,67.2c-2.1,0-4,1-5.1,2.6l0,0C4,70.2,3.8,70.5,3.8,71c0,1,0.8,1.8,1.8,1.8c0.7,0,1.2-0.4,1.6-0.9c0.5-0.6,1.3-1,2.1-1  c1.3,0,2.4,0.9,2.7,2.2h3.7C15.4,69.8,12.7,67.2,9.3,67.2z"/></svg>