<svg xmlns="http://www.w3.org/2000/svg" xmlns:xlink="http://www.w3.org/1999/xlink" version="1.1" x="0px" y="0px" viewBox="0 0 64 80" style="enable-background:new 0 0 64 64;" xml:space="preserve"><g><rect x="10" y="18.688" width="4" height="10.313"/><path d="M14,14.833C14,14.373,13.552,14,13,14h-2c-0.552,0-1,0.373-1,0.833v1.979h4V14.833z"/><path d="M22,22v7h4v-7c1.105,0,2-0.895,2-2c0-1.105-0.895-2-2-2V9h-4v9c-1.105,0-2,0.895-2,2C20,21.105,20.895,22,22,22z"/><path d="M34,22v5h4v-5c1.105,0,2-0.895,2-2c0-1.105-0.895-2-2-2v-5h-4v5c-1.105,0-2,0.895-2,2C32,21.105,32.895,22,34,22z"/><rect x="46" y="15" width="4" height="10"/><path d="M27,32c0-0.552-0.449-1-1-1h-4c-0.551,0-1,0.448-1,1v6.362l6-1.784V32z"/><polygon points="24.549,39.393 21.833,40.201 23,42.664  "/><path d="M12.674,37.019c-1.66,0.072-3.273,0.543-4.694,1.379L10,42.664L12.674,37.019z"/><path d="M15,35.22V32c0-0.552-0.449-1-1-1h-4c-0.551,0-1,0.448-1,1v3.723C10.309,35.251,11.698,35,13.11,35   C13.753,35,14.385,35.08,15,35.22z"/><path d="M38,29h-4c-0.551,0-1,0.448-1,1v4.794l6-1.784V30C39,29.448,38.551,29,38,29z"/><path d="M49.772,41.034L54.79,30.44c-0.127,0.025-0.255,0.038-0.38,0.075l-9.772,2.905l3.798,7.982   C48.854,41.194,49.308,41.066,49.772,41.034z"/><path d="M52,41.646c0.856-0.621,1.991-0.764,3-0.465v-6.511l-3.238,6.836C51.841,41.553,51.925,41.591,52,41.646z"/><polygon points="39.68,34.895 33.228,36.813 36,42.664  "/><path d="M53,43.414l-1,1l-1-1C50.733,43.146,50.378,43,50,43s-0.733,0.146-1,0.414l-0.233,0.232C48.28,44.134,48,44.81,48,45.5   s0.28,1.366,0.768,1.854L52,50.586l3.232-3.232C55.72,46.866,56,46.19,56,45.5s-0.28-1.366-0.768-1.854L55,43.414   C54.466,42.879,53.534,42.879,53,43.414z"/><path d="M51,29.442V28c0-0.552-0.449-1-1-1h-4c-0.551,0-1,0.448-1,1l0.037,3.215L51,29.442z"/><path d="M7.317,53H11v-3.105c0-0.132,0.014-0.263,0.026-0.393L10,47.336L7.317,53z"/><path d="M8.894,45l-2.551-5.387C4.22,41.529,3,44.242,3,47.109V53h2.104L8.894,45z"/><path d="M52,53.414l-3.232,3.232C48.28,57.134,48,57.81,48,58.5s0.28,1.366,0.768,1.854L49,60.586c0.534,0.535,1.466,0.535,2,0l1-1   l1,1c0.534,0.535,1.466,0.535,2,0l0.233-0.232C55.72,59.866,56,59.19,56,58.5s-0.28-1.366-0.768-1.854L52,53.414z"/><path d="M57.944,57.946C57.967,58.13,58,58.313,58,58.5c0,0.751-0.207,1.482-0.553,2.141c0.437-0.114,0.871-0.246,1.295-0.415   c1.251-0.5,2.09-1.635,2.23-2.951C60.238,57.742,59.39,58,58.5,58C58.311,58,58.129,57.968,57.944,57.946z"/><path d="M47.354,48.768C46.858,48.272,46.2,48,45.5,48s-1.358,0.272-1.854,0.768L43.414,49C43.147,49.268,43,49.622,43,50   s0.147,0.732,0.415,1l1,1l-1,1C43.147,53.268,43,53.622,43,54s0.147,0.732,0.415,1l0.232,0.232c0.991,0.99,2.716,0.99,3.707,0   L50.586,52L47.354,48.768z"/><path d="M61,50c0-0.378-0.147-0.732-0.415-1l-0.232-0.232c-0.991-0.99-2.716-0.99-3.707,0L53.414,52l3.232,3.232   c0.991,0.99,2.716,0.99,3.707,0L60.586,55C60.853,54.732,61,54.378,61,54s-0.147-0.732-0.415-1l-1-1l1-1   C60.853,50.732,61,50.378,61,50z"/><path d="M46.056,57.946C45.871,57.968,45.689,58,45.5,58c-0.497,0-0.975-0.098-1.434-0.248l-0.46,0.97L44.685,61h2.059   C46.268,60.258,46,59.388,46,58.5C46,58.313,46.033,58.13,46.056,57.946z"/><path d="M58.818,31.527l-1.517-0.759C57.204,30.72,57.1,30.692,57,30.652v12.013c0.63,0.807,1,1.806,1,2.836   c0,0.187-0.033,0.37-0.056,0.554C58.129,46.032,58.311,46,58.5,46c0.901,0,1.76,0.262,2.5,0.74V35.058   C61,33.553,60.164,32.2,58.818,31.527z"/><path d="M46.056,46.054C46.033,45.87,46,45.687,46,45.5c0-0.97,0.325-1.916,0.888-2.698l-4.189-8.804l-0.443,0.132L37.106,45   l3.96,8.36c0.093-0.491,0.286-0.955,0.58-1.36C41.227,51.421,41,50.728,41,50c0-0.911,0.355-1.769,1-2.414l0.233-0.232   C43.106,46.48,44.266,46,45.5,46C45.689,46,45.871,46.032,46.056,46.054z"/><path d="M19.988,53.695c2.297,2.409,5.075,4.298,8.158,5.552l0.248-0.524L23,47.336L19.988,53.695z"/><path d="M30.606,58.722l0.742,1.566c1.849,0.458,3.77,0.712,5.74,0.712h3.227l1.079-2.278L36,47.336L30.606,58.722z"/><polygon points="31.289,37.39 27.125,38.628 24.106,45 29.5,56.386 34.894,45  "/><path d="M19.893,40.777l-0.765,0.228L18.414,39.7c-0.894-1.228-2.184-2.09-3.625-2.474L11.107,45l0.97,2.048   c0.295-0.341,0.638-0.643,1.033-0.88l3.376-2.025l1.029,1.715l-1.999,1.199c0.814,1.812,1.847,3.476,3.041,4.987L21.893,45   L19.893,40.777z"/><path d="M22,7h4c0.551,0,1-0.448,1-1V4c0-0.552-0.449-1-1-1h-4c-0.551,0-1,0.448-1,1v2C21,6.552,21.449,7,22,7z"/><path d="M34,11h4c0.551,0,1-0.448,1-1V8c0-0.552-0.449-1-1-1h-4c-0.551,0-1,0.448-1,1v2C33,10.552,33.449,11,34,11z"/><path d="M46,13h4c0.551,0,1-0.448,1-1v-2c0-0.552-0.449-1-1-1h-4c-0.551,0-1,0.448-1,1v2C45,12.552,45.449,13,46,13z"/><path d="M10,58v-3H4v3c-1.105,0-2,0.895-2,2c0,1.105,0.895,2,2,2h6c1.105,0,2-0.895,2-2C12,58.895,11.105,58,10,58z"/></g><text x="0" y="79" fill="#000000" font-size="5px" font-weight="bold" font-family="'Helvetica Neue', Helvetica, Arial-Unicode, Arial, Sans-serif">Created by Eucalyp</text><text x="0" y="84" fill="#000000" font-size="5px" font-weight="bold" font-family="'Helvetica Neue', Helvetica, Arial-Unicode, Arial, Sans-serif">from the Noun Project</text></svg>