<svg xmlns="http://www.w3.org/2000/svg" xmlns:xlink="http://www.w3.org/1999/xlink" version="1.1" x="0px" y="0px" viewBox="0 0 100 125" enable-background="new 0 0 100 100" xml:space="preserve"><path fill="#000000" d="M96.1,53c0-0.8-0.5-1.4-1.2-1.6c-0.7-0.2-1.5,0.2-1.8,0.9c-0.2,0.4-0.5,0.6-0.9,0.8  c0.9-4.6,1.9-14.2-4.5-18.4c-0.4-0.3-1-0.3-1.5-0.1c-0.5,0.2-0.8,0.6-1,1.1c-1.2,5.2-3.9,13.2-6.2,14.7c0,0,0,0-0.1,0  c-0.2-0.9,0-2.9,0.4-4.7c0.1-0.7-0.2-1.4-0.8-1.7s-1.4-0.3-1.9,0.2c-0.2,0.2-5,4.6-6,10.1c-0.2-0.7-0.2-1.6,0.1-2.6  c0.2-0.6,0-1.3-0.6-1.7c-0.5-0.4-1.3-0.4-1.8,0c-0.3,0.2-5.9,4-7.4,9.5c-0.3-0.2-0.6-0.4-0.8-0.6c-0.5-0.5-1.4-0.6-2-0.2  c-0.1,0.1-2.3,1.5-3.9,4.6c-1.2,2.3-2.2,5.9-1.2,10.7c-0.7,0.8-1.3,1.5-1.8,2.2l0-18.8c5.9-0.8,10.5-5.8,10.5-12  c0-3.8-1.7-7.1-4.4-9.3c0.7-6.1,3.6-11.8,8.3-16c0.6-0.6,0.7-1.5,0.2-2.2c-4-4.8-9.9-7.5-16.1-7.5S38,13.1,34,17.8  c-0.6,0.7-0.5,1.6,0.2,2.2c4.6,4.2,7.5,9.8,8.3,15.9c-2.7,2.2-4.5,5.6-4.5,9.4c0,6.1,4.6,11.2,10.5,12l0,18.8  c-0.5-0.7-1.2-1.4-1.8-2.2c1.1-4.8,0-8.4-1.2-10.7c-1.6-3-3.8-4.5-3.9-4.6c-0.6-0.4-1.5-0.3-2,0.2c-0.2,0.2-0.4,0.4-0.8,0.6  c-1.5-5.4-7.1-9.3-7.4-9.5c-0.6-0.4-1.3-0.4-1.8,0c-0.5,0.4-0.8,1.1-0.6,1.7c0.3,1,0.3,1.9,0.1,2.6c-0.9-5.5-5.7-9.9-6-10.1  c-0.5-0.5-1.3-0.5-1.9-0.2c-0.6,0.3-0.9,1-0.8,1.7c0.4,1.8,0.5,3.8,0.4,4.7c0,0,0,0-0.1,0c-2.5-1.5-5.1-9.8-6.2-14.7  c-0.1-0.5-0.5-0.9-1-1.1c-0.5-0.2-1-0.1-1.5,0.1c-6.4,4.1-5.4,13.8-4.5,18.4c-0.4-0.2-0.7-0.4-0.9-0.8c-0.3-0.7-1.1-1.1-1.8-0.9  c-0.7,0.2-1.3,0.9-1.2,1.6c0.2,3.9,2.2,11.2,8.6,11.9c0,0.1,0,0.1,0,0.2c-0.1,0.1-0.5,0.3-1.7,0.3c-0.7,0-1.3,0.5-1.5,1.2  c-0.2,0.7,0.1,1.4,0.7,1.8c0.2,0.1,4.2,2.4,9.7,2.4c0.7,0,1.5,0,2.2-0.1c0,0.4-0.1,0.9-0.3,1.2c-0.4,0.5-1.3,0.6-2,0.6  c-0.7,0-1.4,0.5-1.5,1.2c-0.2,0.7,0.1,1.4,0.8,1.8c0.1,0.1,2.9,1.6,6.6,1.6c2.3,0,4.4-0.6,6.3-1.7c0.1,0.7,0.1,1.4-0.1,1.9  c-0.3,0.5-1,0.9-2.1,1c-0.8,0.1-1.3,0.7-1.4,1.5c-0.1,0.8,0.4,1.5,1.2,1.7c0.1,0,1.9,0.5,4.4,0.5c3.2,0,7.8-0.8,11.6-4.5  c0,0,0,0,0,0c1.6,1.9,2.6,3.5,3.1,4.1l0,6.5c0,0.9,0.7,1.6,1.6,1.6c0,0,0,0,0,0c0.9,0,1.6-0.7,1.6-1.6l0-6.5  c0.5-0.7,1.5-2.2,3.1-4.1c0,0,0,0,0,0c3.7,3.7,8.3,4.5,11.6,4.5c0,0,0,0,0,0c2.5,0,4.3-0.5,4.4-0.5c0.7-0.2,1.2-0.9,1.2-1.7  c-0.1-0.8-0.6-1.4-1.4-1.5c-1.1-0.1-1.8-0.5-2.1-1c-0.3-0.5-0.2-1.2-0.1-1.9c1.9,1.1,4,1.7,6.3,1.7c3.7,0,6.5-1.5,6.6-1.6  c0.6-0.3,1-1.1,0.8-1.8c-0.2-0.7-0.8-1.2-1.5-1.2c-0.7,0-1.6-0.1-2-0.6c-0.2-0.3-0.3-0.8-0.3-1.2c0.7,0.1,1.5,0.1,2.2,0.1  c5.5,0,9.5-2.3,9.7-2.4c0.6-0.4,0.9-1.1,0.7-1.8c-0.2-0.7-0.8-1.2-1.5-1.2c-1.2,0-1.7-0.3-1.7-0.3c0,0,0-0.1,0-0.2  C93.9,64.2,95.9,56.9,96.1,53z M42.1,43.8l0.6,1.5l-0.6,1.5C41.9,45.9,41.9,44.8,42.1,43.8z M45.5,38.6l-1.1,2.6L43.9,40  C44.4,39.5,44.9,39,45.5,38.6z M50,37.2c0.2,0,0.3,0,0.5,0l0.6,1.3L50,41.2l-1.1-2.6l0.6-1.3C49.7,37.2,49.8,37.2,50,37.2z M56.1,40  l-0.5,1.2l-1.1-2.6C55.1,39,55.6,39.5,56.1,40z M58,46.9l-0.6-1.5l0.6-1.5C58.2,44.8,58.2,45.9,58,46.9z M55.6,49.5l0.5,1.2  c-0.5,0.5-1,1-1.5,1.4L55.6,49.5z M52.8,47.9l-1.1-2.6l1.1-2.6l1.1,2.6L52.8,47.9z M48.3,45.3l-1.1,2.6l-1.1-2.6l1.1-2.6L48.3,45.3z   M44.4,49.5l1.1,2.5c-0.6-0.4-1.1-0.9-1.5-1.4L44.4,49.5z M48.9,52.1l1.1-2.6l1.1,2.6l-0.5,1.3c-0.2,0-0.4,0-0.5,0  c-0.2,0-0.3,0-0.5,0L48.9,52.1z M37.4,18.8c3.3-3.3,7.9-5.2,12.6-5.2c4.8,0,9.3,1.9,12.6,5.2c-4.2,4.2-7,9.6-7.9,15.4  c-1.4-0.6-3-1-4.7-1c-1.6,0-3.2,0.3-4.7,0.9C44.4,28.4,41.6,23,37.4,18.8z M42.8,75.4c-2.7,2.5-5.9,3.2-8.4,3.3  c1.4-2.7-0.3-6.2-0.5-6.6c-0.2-0.4-0.6-0.7-1.1-0.8c-0.1,0-0.2,0-0.3,0c-0.4,0-0.8,0.1-1,0.4c-1.7,1.5-3.8,2.3-6.1,2.3  c-0.5,0-0.9,0-1.3-0.1c0,0,0.1-0.1,0.1-0.1c1.5-2.2,0.6-5.1,0.5-5.4c-0.3-0.8-1-1.2-1.8-1c-1,0.2-2.1,0.3-3.2,0.3  c-1.7,0-3.3-0.3-4.6-0.6c0.1-0.1,0.1-0.2,0.2-0.3c1-1.8-0.1-3.8-0.2-4.1c-0.3-0.5-0.8-0.8-1.4-0.8c-3.5,0-5.2-2.9-5.9-5.4  c0.9,0.2,1.7,0.3,2.1,0.3c0.1,0,0.2,0,0.2,0c0.5,0,0.9-0.3,1.2-0.7c0.3-0.4,0.4-0.9,0.2-1.4c-0.9-3.2-2.2-11.2,0.8-15.5  c1.2,4.3,3.6,11.9,7,14c0.7,0.4,1.4,0.7,2,0.7c0.8,0,1.5-0.3,2-1c0.5-0.6,0.7-1.5,0.8-2.5c1.3,2,2.4,4.6,1.8,7.1  c-0.1,0.5,0.1,1.1,0.4,1.5c0.4,0.4,0.9,0.5,1.5,0.4c0.3-0.1,2.5-0.6,3.7-2.8c0.3-0.5,0.5-1.1,0.7-1.7c1.7,1.7,3.6,4.3,3.6,7.1  c0,0.5,0.3,1.1,0.7,1.3c0.5,0.3,1,0.3,1.5,0.1c0.2-0.1,1.3-0.7,2.4-1.4c1.3,1.3,3.5,4.2,3.2,8.9c-4.4-4.5-10.5-9.1-17.6-10.5  c-10.1-2-10.9-9.6-11-9.9c-0.1-0.9-0.8-1.5-1.7-1.5c-0.9,0.1-1.5,0.8-1.5,1.7c0,0.1,0.2,2.7,2,5.5c1.6,2.6,5,5.9,11.5,7.2  c7.1,1.4,13.3,6.7,17.5,11.3C43,75,42.9,75.2,42.8,75.4z M86.4,61.8c-0.6,0-1.1,0.3-1.4,0.8c-0.1,0.2-1.3,2.3-0.2,4.1  c0.1,0.1,0.1,0.2,0.2,0.3c-1.3,0.4-2.9,0.6-4.6,0.6c-1.1,0-2.2-0.1-3.2-0.3c-0.8-0.2-1.6,0.3-1.8,1c-0.1,0.3-1.1,3.2,0.5,5.4  c0,0,0,0.1,0.1,0.1C75.5,73.9,75,74,74.6,74c-2.3,0-4.3-0.8-6.1-2.3c-0.4-0.3-0.9-0.5-1.3-0.4c-0.5,0.1-0.9,0.4-1.1,0.8  c-0.2,0.4-1.9,3.8-0.5,6.6c-2.5-0.1-5.7-0.8-8.4-3.3C57.1,75.2,57,75,57,74.8c4.2-4.6,10.4-9.9,17.5-11.3c6.5-1.3,9.8-4.6,11.5-7.2  c1.8-2.9,2-5.4,2-5.5c0.1-0.9-0.6-1.6-1.5-1.7c-0.9-0.1-1.6,0.6-1.7,1.4c0,0.3-0.8,7.9-11,9.9c-7.1,1.4-13.2,6.1-17.7,10.6  c-0.3-4.8,1.9-7.7,3.2-8.9c1.1,0.7,2.2,1.3,2.4,1.4c0.5,0.2,1.1,0.2,1.5-0.1c0.5-0.3,0.7-0.8,0.7-1.3c0-2.8,1.9-5.4,3.6-7.1  c0.1,0.6,0.4,1.1,0.7,1.7c1.3,2.1,3.5,2.7,3.7,2.8c0.5,0.1,1.1,0,1.5-0.4c0.4-0.4,0.6-0.9,0.4-1.5c-0.5-2.5,0.6-5.1,1.8-7.1  c0.1,1,0.3,1.9,0.8,2.5c0.5,0.6,1.2,1,2,1h0c0.6,0,1.3-0.2,2-0.7c3.4-2.1,5.9-9.7,7-14c3.8,5.2,0.9,15.4,0.8,15.6  c-0.1,0.5,0,1,0.2,1.4c0.3,0.4,0.7,0.6,1.2,0.7c0,0,0.1,0,0.2,0c0.4,0,1.2,0,2.1-0.3C91.6,58.9,89.9,61.8,86.4,61.8z"/><text x="0" y="115" fill="#000000" font-size="5px" font-weight="bold" font-family="'Helvetica Neue', Helvetica, Arial-Unicode, Arial, Sans-serif">Created by HeadsOfBirds</text><text x="0" y="120" fill="#000000" font-size="5px" font-weight="bold" font-family="'Helvetica Neue', Helvetica, Arial-Unicode, Arial, Sans-serif">from the Noun Project</text></svg>