<svg xmlns:dc="http://purl.org/dc/elements/1.1/" xmlns:cc="http://creativecommons.org/ns#" xmlns:rdf="http://www.w3.org/1999/02/22-rdf-syntax-ns#" xmlns:svg="http://www.w3.org/2000/svg" xmlns="http://www.w3.org/2000/svg" xmlns:sodipodi="http://sodipodi.sourceforge.net/DTD/sodipodi-0.dtd" xmlns:inkscape="http://www.inkscape.org/namespaces/inkscape" viewBox="0 0 100 125" version="1.1" x="0px" y="0px"><g transform="translate(0,-952.36216)"><path d="m 50,957.3622 c -8.738,0 -17.118875,3.46974 -23.296875,9.64844 -6.179,6.1786 -9.650391,14.56093 -9.650391,23.29883 0.05,19.12933 32.707032,57.05273 32.707032,57.05273 0,0 33.3635,-34.3521 33.1875,-57.05273 0,-8.7379 -3.471391,-17.12023 -9.650391,-23.29883 C 67.117875,960.83194 58.738,957.3622 50,957.3622 Z m 0,13.59961 A 19.34387,19.34387 0 0 1 69.34375,990.30556 19.34387,19.34387 0 0 1 50,1009.6493 19.34387,19.34387 0 0 1 30.65625,990.30556 19.34387,19.34387 0 0 1 50,970.96181 Z" style="opacity:1;fill:#000000;fill-opacity:1;stroke:none;stroke-width:1;stroke-linecap:butt;stroke-linejoin:miter;stroke-miterlimit:4;stroke-dasharray:none;stroke-dashoffset:0;stroke-opacity:1"/><path style="color:#000000;font-style:normal;font-variant:normal;font-weight:normal;font-stretch:normal;font-size:medium;line-height:normal;font-family:sans-serif;text-indent:0;text-align:start;text-decoration:none;text-decoration-line:none;text-decoration-style:solid;text-decoration-color:#000000;letter-spacing:normal;word-spacing:normal;text-transform:none;direction:ltr;block-progression:tb;writing-mode:lr-tb;baseline-shift:baseline;text-anchor:start;white-space:normal;clip-rule:nonzero;display:inline;overflow:visible;visibility:visible;opacity:1;isolation:auto;mix-blend-mode:normal;color-interpolation:sRGB;color-interpolation-filters:linearRGB;solid-color:#000000;solid-opacity:1;fill:#000000;fill-opacity:1;fill-rule:evenodd;stroke:none;stroke-width:8;stroke-linecap:round;stroke-linejoin:round;stroke-miterlimit:4;stroke-dasharray:none;stroke-dashoffset:0;stroke-opacity:1;color-rendering:auto;image-rendering:auto;shape-rendering:auto;text-rendering:auto;enable-background:accumulate" d="m 53.462005,977.80991 a 0.2076059,0.2076059 0 0 0 -0.01736,0 l -4.896845,0.6087 -2.065713,-0.4877 a 0.2076059,0.2076059 0 0 0 -0.212104,0.075 l -0.471403,0.613 a 0.2076059,0.2076059 0 0 0 -0.01953,0.2224 l 0.158942,0.3032 -0.208849,0.2225 a 0.2076059,0.2076059 0 0 0 -0.05587,0.1562 l 0.04557,0.6667 -0.955826,-0.082 a 0.2076059,0.2076059 0 0 0 -0.173589,0.3445 l 0.578269,0.652 -0.0217,0.1736 -0.394916,-0.092 a 0.2076059,0.2076059 0 0 0 -0.198543,0.3445 l 0.616784,0.6536 -0.0092,0.088 -0.846791,-0.179 a 0.2076059,0.2076059 0 0 0 -0.181726,0.048 l -0.80502,0.7231 a 0.2076059,0.2076059 0 0 0 -0.06781,0.1346 l -0.04123,0.4334 a 0.2076059,0.2076059 0 0 0 0.07866,0.1834 l 0.267978,0.2099 -0.207765,0.166 a 0.2076059,0.2076059 0 0 0 0.01411,0.3352 l 0.330904,0.2203 -0.0054,0.063 -0.428005,-0.1557 a 0.2076059,0.2076059 0 0 0 -0.271776,0.249 l 0.309748,1.156 a 0.2076059,0.2076059 0 0 0 0.218614,0.153 l 0.0071,0 -0.04557,0.06 a 0.2076059,0.2076059 0 0 0 0.0255,0.2794 l 0.334702,0.3043 -1.039366,1.96372 a 0.2076059,0.2076059 0 0 0 0.02604,0.2322 l 0.322226,0.3737 -1.311142,0.4942 a 0.2076059,0.2076059 0 0 0 -0.02278,0.3787 l 2.229538,1.156 a 0.2076059,0.2076059 0 0 0 0.241397,-0.036 l 0.539212,-0.53 -0.668319,1.5162 a 0.2076059,0.2076059 0 0 0 -0.0098,0.026 l -0.558741,1.9409 a 0.2076059,0.2076059 0 0 0 -0.0043,0.097 l 0.298899,1.5346 -0.745349,2.1564 a 0.2076059,0.2076059 0 0 0 -0.01139,0.074 l 0.02061,0.6602 a 0.2076059,0.2076059 0 0 0 0.278827,0.1887 l 0.846248,-0.3097 a 0.2076059,0.2076059 0 0 0 0.133447,-0.1617 l 0.357485,-2.1839 0.403053,-0.28 a 0.2076059,0.2076059 0 0 0 0.06293,-0.2706 l -0.311918,-0.5658 -0.122598,-0.8208 1.200478,-1.0404 -0.837568,1.1451 a 0.2076059,0.2076059 0 0 0 -0.03743,0.1557 l 0.123682,0.7643 a 0.2076059,0.2076059 0 0 0 0.283711,0.159 l 0.848417,-0.3472 a 0.2076059,0.2076059 0 0 0 0.110121,-0.1063 l 0.507206,-1.1153 0.465979,0.6612 -0.53433,0 a 0.2076059,0.2076059 0 0 0 -0.206137,0.1818 l -0.175217,1.3719 a 0.2076059,0.2076059 0 0 0 0.07866,0.1904 l 0.490389,0.3813 0.411733,0.7774 -0.324938,0.1915 a 0.2076059,0.2076059 0 0 0 -0.08245,0.09 l -0.96342,2.0141 a 0.2076059,0.2076059 0 0 0 -0.01031,0.1519 l 0.262554,0.83597 -0.0043,0 -0.12965,-0.3325 a 0.2076059,0.2076059 0 0 0 -0.303781,-0.1009 l -0.467063,0.2918 a 0.2076059,0.2076059 0 0 0 -0.08571,0.2441 l 0.233261,0.6716 a 0.2076059,0.2076059 0 0 0 0.03146,0.059 l 0.876083,1.1386 a 0.2076059,0.2076059 0 0 0 0.371047,-0.1459 l -0.07269,-0.7785 0.28371,-0.1101 1.342605,0.8219 a 0.2076059,0.2076059 0 0 0 0.314631,-0.197 l -0.08083,-0.8305 1.127788,0.5414 a 0.2076059,0.2076059 0 0 0 0.176301,0 l 1.459778,-0.6716 a 0.2076059,0.2076059 0 0 0 0.08625,-0.073 l 0.28371,-0.4264 1.282391,0.08 a 0.2076059,0.2076059 0 0 0 0.148093,-0.05 l 3.415911,-2.94877 a 0.2076059,0.2076059 0 0 0 0.05425,-0.2414 l -0.414987,-0.9331 0.939552,-1.1267 a 0.2076059,0.2076059 0 0 0 0.02333,-0.2305 l -0.233261,-0.4383 a 0.2076059,0.2076059 0 0 0 -0.07703,-0.08 l -1.664287,-0.9927 a 0.2076059,0.2076059 0 0 0 -0.08625,-0.028 l -0.904834,-0.088 a 0.2076059,0.2076059 0 0 0 -0.144839,0.041 l -0.867946,0.6509 -1.521619,-0.1747 1.142435,-0.1632 a 0.2076059,0.2076059 0 0 0 0.105781,-0.048 l 0.75891,-0.6509 0.361283,0 a 0.2076059,0.2076059 0 0 0 0.123683,-0.041 l 0.904833,-0.6716 a 0.2076059,0.2076059 0 0 0 0.01031,-0.3249 l -0.75891,-0.6423 a 0.2076059,0.2076059 0 0 0 -0.16057,-0.047 l -1.205903,0.1551 0.135616,-0.1356 1.453268,-0.2517 a 0.2076059,0.2076059 0 0 0 0.131277,-0.081 l 1.752167,-2.3646 a 0.2076059,0.2076059 0 0 0 0.03526,-0.077 l 0.08137,-0.3527 0.424751,-0.79302 a 0.2076059,0.2076059 0 0 0 0.02333,-0.121 l -0.04991,-0.4497 1.037739,-1.5428 a 0.2076059,0.2076059 0 0 0 0.03146,-0.076 l 0.145923,-0.7589 a 0.2076059,0.2076059 0 0 0 -0.04069,-0.1681 l -0.75891,-0.9635 a 0.2076059,0.2076059 0 0 0 -0.159486,-0.079 l -3.182108,-0.059 a 0.2076059,0.2076059 0 0 0 -0.08408,0.016 l -0.506121,0.2126 -1.699005,-0.1698 a 0.2076059,0.2076059 0 0 0 -0.101442,0.015 l -2.366781,0.9992 1.407701,-1.6355 a 0.2076059,0.2076059 0 0 0 -0.152976,-0.3434 l -0.845705,-0.017 3.625846,-2.823 a 0.2076059,0.2076059 0 0 0 0.07378,-0.2143 l -0.132362,-0.5289 0.304867,-1.0258 a 0.2076059,0.2076059 0 0 0 -0.207223,-0.2663 l 0,0 z"/></g></svg>